<svg width="79" height="79" viewBox="0 0 79 79" fill="none" xmlns="http://www.w3.org/2000/svg">
<rect width="79" height="79" rx="39.5" fill="#9FD18B"/>
<path d="M39.4997 23.7002C41.5949 23.7002 43.6043 24.5325 45.0858 26.0141C46.5674 27.4956 47.3997 29.505 47.3997 31.6002C47.3997 33.6954 46.5674 35.7048 45.0858 37.1863C43.6043 38.6679 41.5949 39.5002 39.4997 39.5002C37.4045 39.5002 35.3951 38.6679 33.9135 37.1863C32.432 35.7048 31.5997 33.6954 31.5997 31.6002C31.5997 29.505 32.432 27.4956 33.9135 26.0141C35.3951 24.5325 37.4045 23.7002 39.4997 23.7002ZM39.4997 43.4502C48.2292 43.4502 55.2997 46.9854 55.2997 51.3502V55.3002H23.6997V51.3502C23.6997 46.9854 30.7702 43.4502 39.4997 43.4502Z" fill="white"/>
</svg>
