<svg width="20" height="20" viewBox="0 0 20 20" fill="none" xmlns="http://www.w3.org/2000/svg">
<path fill-rule="evenodd" clip-rule="evenodd" d="M20 18V11H18V18H2V2H9V0H2C0.89543 0 0 0.89543 0 2V18C0 19.1046 0.89543 20 2 20H18C19.1046 20 20 19.1046 20 18ZM17.1786 0.723423C16.7202 0.26142 16.0925 0 15.4378 0C14.7838 0 14.1569 0.26083 13.6958 0.724628L5.32696 9.09342C4.57913 9.75233 4.0889 10.7328 4.00371 11.7873L4.00046 15.0023V16.0023H8.13506C9.26936 15.9245 10.2595 15.4295 10.958 14.6238L19.2795 6.30584C19.7411 5.84416 20.0005 5.21799 20.0005 4.56508C20.0005 3.91217 19.7411 3.286 19.2795 2.82432L17.1786 0.723423ZM8.06352 14.0051C8.59775 13.9672 9.09503 13.7186 9.49433 13.2619L15.5572 7.19902L12.8029 4.44457L6.69564 10.5498C6.29049 10.9082 6.03985 11.4095 5.99954 11.8681V14.0032L8.06352 14.0051ZM14.2173 3.03058L16.9714 5.78481L17.8643 4.89185C17.9509 4.80525 17.9996 4.68779 17.9996 4.56531C17.9996 4.44283 17.9509 4.32537 17.8643 4.23877L15.7607 2.13509C15.675 2.04878 15.5585 2.00023 15.4369 2.00023C15.3153 2.00023 15.1988 2.04878 15.1131 2.13509L14.2173 3.03058Z" fill="#EBEAF1"/>
</svg>
